<?xml version="1.0" standalone="no"?>
<!DOCTYPE svg PUBLIC "-//W3C//DTD SVG 20010904//EN"
 "http://www.w3.org/TR/2001/REC-SVG-20010904/DTD/svg10.dtd">
<svg version="1.0" xmlns="http://www.w3.org/2000/svg"
 width="400.000000pt" height="400.000000pt" viewBox="0 0 400.000000 400.000000"
 preserveAspectRatio="xMidYMid meet">
<metadata>
Created by potrace 1.14, written by Peter Selinger 2001-2017
</metadata>
<g transform="translate(0.000000,400.000000) scale(0.100000,-0.100000)"
fill="#000000" stroke="none">
<path d="M3015 3586 c-59 -26 -96 -70 -216 -259 -67 -106 -123 -193 -124 -195
-1 -1 -92 2 -203 9 -193 11 -203 10 -296 -11 -149 -35 -205 -90 -222 -216 l-6
-52 -79 -6 c-97 -9 -281 -47 -369 -76 -125 -41 -180 -96 -180 -180 0 -52 -86
-319 -105 -326 -7 -3 -169 -34 -361 -69 -523 -96 -579 -111 -642 -175 -42 -41
-80 -116 -88 -172 -4 -24 -14 -52 -24 -63 -25 -29 -38 -57 -49 -107 -13 -56 7
-194 38 -263 l21 -48 -26 -26 c-58 -57 -66 -116 -30 -216 31 -86 66 -137 120
-177 46 -34 76 -82 76 -121 0 -51 105 -112 305 -177 55 -18 145 -47 200 -65
55 -18 141 -45 190 -60 50 -14 108 -33 130 -40 22 -8 128 -41 235 -75 242 -76
571 -180 710 -225 225 -72 345 -74 494 -9 75 33 114 61 201 138 39 34 106 93
150 131 44 38 89 78 101 89 35 36 118 112 170 156 27 24 90 80 139 125 50 46
128 115 175 155 87 75 234 207 349 315 121 113 150 189 90 239 -17 14 -37 26
-45 26 -11 0 -13 11 -8 58 4 31 12 66 17 77 6 11 14 43 18 70 4 28 18 100 32
160 33 138 47 274 36 351 -4 33 -22 87 -41 124 -44 86 -87 110 -199 110 l-77
0 -7 31 c-4 17 -25 48 -46 69 -21 21 -39 47 -39 59 0 11 -7 38 -15 58 -18 47
-35 143 -35 197 0 23 -7 63 -15 90 -8 27 -15 80 -15 117 0 37 -4 79 -9 92 -17
44 -258 352 -285 365 -35 16 -103 15 -141 -2z m156 -248 c45 -62 86 -119 92
-125 7 -10 1 -13 -24 -13 -30 0 -39 7 -79 64 -28 39 -48 59 -52 52 -4 -6 -8
-46 -8 -88 l0 -78 -25 12 c-22 10 -24 17 -27 82 l-3 71 -26 -40 c-165 -253
-199 -306 -199 -310 0 -3 20 -5 45 -5 37 0 43 -3 38 -16 -5 -13 -16 -15 -55
-11 l-48 6 -61 -90 c-57 -86 -62 -90 -79 -74 -17 16 -16 19 26 87 24 40 42 73
40 75 -8 8 -341 21 -350 14 -6 -4 -42 -16 -81 -25 -91 -23 -105 -36 -105 -98
0 -57 -23 -64 -28 -9 -3 26 -10 35 -33 43 -31 11 -37 34 -18 69 9 17 17 19 67
14 31 -3 73 -1 92 4 l35 9 -30 2 c-16 1 -39 5 -49 9 -42 16 57 28 179 20 66
-4 172 -10 235 -13 l115 -7 143 229 c120 192 154 237 189 251 1 1 38 -50 84
-111z m164 -503 c14 -71 31 -146 37 -165 14 -43 14 -149 1 -176 -14 -26 -6
-44 21 -44 18 0 23 -5 22 -22 -1 -29 -46 -37 -70 -13 -20 21 -21 78 -1 95 12
10 14 28 9 84 -6 81 -43 287 -54 299 -12 13 -133 -23 -152 -45 -11 -13 -18
-37 -18 -64 0 -34 -3 -42 -15 -38 -9 4 -15 19 -15 39 0 27 -4 34 -21 37 -33 5
-45 31 -31 63 12 25 15 26 67 20 64 -8 201 21 186 39 -8 10 -15 48 -26 136 -7
58 33 -106 60 -245z m-375 -293 c21 -17 49 -113 50 -173 0 -25 -2 -26 -82 -32
-156 -13 -144 -17 -162 61 -8 37 -18 86 -22 109 -7 49 -6 49 117 52 60 1 82
-3 99 -17z m-790 -2 c0 -6 33 -10 78 -11 42 0 147 -6 232 -13 l155 -12 -80 -7
c-238 -23 -380 -39 -384 -43 -12 -12 15 -13 110 -5 57 5 163 11 234 13 l130 3
27 -83 c15 -46 30 -96 33 -112 l6 -29 -63 28 c-117 53 -323 101 -435 101 l-43
0 0 -91 0 -92 -67 6 c-38 4 -211 10 -386 13 -286 6 -317 9 -312 23 4 9 29 76
55 150 27 74 54 137 61 142 7 4 47 10 89 14 41 3 82 8 90 9 40 9 470 5 470 -4z
m1285 -99 c-21 -43 -29 -39 -8 4 9 19 18 33 21 31 2 -2 -4 -18 -13 -35z m314
-117 c6 -15 10 -28 8 -30 -10 -10 -898 -294 -906 -290 -5 3 -14 20 -20 36 -8
23 -7 32 2 35 388 131 846 272 888 274 9 1 21 -11 28 -25z m-678 -102 c4 -21
2 -33 -7 -36 -14 -5 -24 15 -24 51 0 35 23 24 31 -15z m697 -122 c-5 -41 -18
-115 -30 -165 l-22 -90 -12 55 c-6 30 -12 51 -13 45 -1 -5 -6 -2 -12 8 -14 24
-33 21 -68 -10 -26 -25 -30 -36 -36 -109 -7 -80 -7 -82 16 -90 13 -4 27 -7 31
-6 3 1 2 -15 -4 -35 -5 -20 -7 -51 -3 -69 3 -21 2 -34 -5 -34 -5 0 -10 6 -10
13 -1 7 -6 5 -14 -6 -12 -16 -14 -14 -21 15 -4 18 -7 44 -6 58 0 16 -5 9 -14
-20 -13 -38 -28 -54 -98 -106 -66 -49 -605 -411 -628 -422 -4 -1 -6 32 -6 75
0 83 -15 161 -44 231 l-19 43 -112 -7 c-100 -6 -119 -10 -168 -37 -30 -16 -63
-37 -74 -46 -32 -28 -74 -125 -117 -268 -54 -184 -104 -310 -144 -361 -1 -1
-60 14 -131 34 -71 21 -142 37 -159 36 -49 -3 -260 36 -454 83 l-182 44 -74
-40 c-41 -23 -75 -42 -75 -44 0 -2 44 -18 98 -36 53 -17 121 -40 150 -51 l52
-19 0 -55 c0 -30 -4 -54 -10 -54 -21 0 -683 231 -745 260 -11 5 -60 25 -110
44 -150 56 -145 53 -145 103 l0 44 -95 44 c-75 35 -95 49 -95 65 0 24 43 53
104 70 l43 12 -10 42 c-7 30 -18 47 -38 58 -38 22 -66 82 -80 168 -8 53 -8 79
1 99 14 34 50 55 79 46 12 -4 21 -2 21 4 0 14 27 14 107 -1 50 -9 67 -17 73
-33 4 -11 14 -26 21 -32 8 -6 187 -48 399 -94 399 -85 495 -98 525 -68 14 14
35 11 233 -33 318 -72 274 -79 767 130 220 94 401 167 403 162 9 -25 829 329
932 403 19 14 36 24 36 23 1 0 -3 -35 -8 -76z m-3274 -133 c-3 -10 101 -30
433 -86 241 -40 450 -76 465 -79 26 -7 26 -8 13 -39 -8 -18 -21 -33 -30 -33
-9 0 -218 34 -465 75 -247 41 -452 75 -456 75 -7 0 -1 34 11 63 6 13 2 17 -16
18 -23 0 -23 1 -4 9 31 13 55 12 49 -3z m2330 -13 c3 -9 6 -31 6 -49 0 -31 -4
-35 -52 -53 -29 -11 -259 -99 -510 -196 l-457 -175 -61 31 -60 32 552 212
c304 117 558 213 564 213 7 1 15 -6 18 -15z m813 -101 c28 -42 24 -230 -5
-295 -11 -27 -23 -48 -27 -48 -3 0 1 13 9 28 16 31 37 172 32 212 -7 54 -18
89 -32 101 -16 13 -19 29 -4 29 5 0 18 -12 27 -27z m-27 -87 c0 -3 -4 -8 -10
-11 -5 -3 -10 -1 -10 4 0 6 5 11 10 11 6 0 10 -2 10 -4z m-1035 -582 c9 -4 26
-25 38 -48 19 -36 22 -56 22 -156 -1 -133 -17 -203 -76 -326 -37 -76 -101
-155 -115 -141 -3 3 10 25 29 49 40 50 77 108 77 123 0 6 -4 4 -9 -4 -15 -24
-38 -21 -67 10 -30 31 -40 30 -55 -8 -13 -34 -29 -19 -29 28 0 21 -4 39 -9 39
-5 0 -13 9 -16 21 -5 14 -12 18 -23 14 -10 -3 -2 9 15 27 19 19 35 48 38 68 3
19 11 52 17 73 11 35 13 37 25 21 12 -17 14 -17 32 0 26 24 41 13 41 -31 0
-37 -1 -37 55 -19 15 5 15 4 -2 -5 -14 -7 -23 -21 -23 -35 0 -13 -11 -35 -25
-49 -21 -20 -25 -31 -20 -57 3 -18 7 -44 9 -58 4 -45 17 -56 32 -29 7 13 14
20 14 14 0 -13 20 16 20 30 0 6 -5 3 -11 -5 -9 -12 -10 -12 -5 3 3 11 9 30 12
44 5 19 9 22 16 11 5 -8 7 2 3 27 -4 31 -3 36 5 20 9 -18 10 -17 6 8 -2 15 1
30 5 33 12 7 11 141 -2 186 -13 48 -47 88 -76 91 -22 1 -30 17 -16 30 8 9 46
9 68 1z m151 -38 c3 -13 4 -34 2 -47 l-3 -23 -16 24 c-9 14 -19 35 -23 48 -6
18 -4 22 13 22 13 0 23 -8 27 -24z m-152 -52 c3 -8 2 -12 -4 -9 -6 3 -10 10
-10 16 0 14 7 11 14 -7z m23 -101 c-3 -10 -5 -2 -5 17 0 19 2 27 5 18 2 -10 2
-26 0 -35z m-117 -402 c0 -14 -64 -51 -86 -50 -11 0 -6 4 12 10 17 5 39 18 49
29 20 22 25 24 25 11z"/>
<path d="M3580 1725 c0 -8 4 -15 10 -15 5 0 7 7 4 15 -4 8 -8 15 -10 15 -2 0
-4 -7 -4 -15z"/>
<path d="M380 1597 c0 -12 -9 -28 -20 -35 -11 -7 -20 -17 -20 -23 0 -8 4 -8
15 1 33 27 50 -33 19 -65 -14 -13 -19 -14 -25 -3 -6 9 -9 9 -9 1 0 -17 49 -53
74 -53 16 0 18 -2 7 -9 -8 -5 -20 -7 -28 -4 -7 3 -13 -2 -13 -11 0 -9 12 -21
27 -27 39 -14 68 2 93 51 l21 41 -36 64 c-48 86 -105 125 -105 72z"/>
<path d="M230 1575 c-11 -13 -10 -14 3 -10 19 8 30 -9 22 -36 -4 -12 -12 -18
-21 -15 -23 9 -16 -12 11 -30 31 -20 56 -15 71 15 13 26 3 69 -19 83 -20 13
-54 9 -67 -7z"/>
<path d="M600 1382 c0 -12 78 -35 90 -27 6 3 10 2 10 -3 0 -5 19 -15 43 -22
111 -34 343 -100 350 -100 4 0 7 9 7 20 0 11 -1 20 -3 20 -1 0 -32 9 -69 19
-62 18 -67 18 -71 3 -4 -16 -5 -16 -6 0 -2 25 -131 62 -131 37 0 -8 -4 -7 -12
3 -7 9 -52 26 -101 37 -100 24 -107 24 -107 13z"/>
<path d="M350 1346 c0 -8 10 -16 22 -18 13 -2 24 -11 27 -23 4 -24 19 -35 49
-35 18 0 22 6 22 29 0 26 -5 31 -47 45 -58 20 -73 20 -73 2z"/>
<path d="M541 1346 c-9 -11 -7 -15 9 -19 15 -4 20 0 20 14 0 22 -13 25 -29 5z"/>
<path d="M1690 1319 c0 -39 0 -40 22 -25 37 26 42 18 9 -13 -18 -17 -31 -39
-31 -53 1 -20 3 -19 15 10 22 51 55 38 55 -23 0 -34 -10 -54 -31 -65 -16 -9
-20 -5 -28 22 -5 18 -10 25 -10 15 -3 -51 57 -106 116 -108 25 0 26 -1 7 -9
-29 -12 -70 -1 -99 26 l-25 23 0 -39 0 -39 69 -21 c88 -26 97 -25 131 8 60 60
65 206 10 261 -16 15 -41 31 -57 34 -15 3 -56 12 -90 21 l-63 14 0 -39z"/>
<path d="M581 1335 c3 -12 23 -25 57 -36 51 -17 52 -17 52 1 0 14 -11 22 -41
30 -22 6 -47 14 -56 17 -11 4 -14 1 -12 -12z"/>
<path d="M1507 1320 c-74 -59 -23 -190 74 -190 87 0 108 116 33 185 -33 30
-73 32 -107 5z m33 -62 c0 -36 -16 -68 -34 -68 -29 0 -35 63 -10 98 20 29 44
13 44 -30z"/>
<path d="M480 1294 c0 -14 46 -40 87 -48 10 -1 25 -5 33 -9 87 -32 476 -147
497 -147 7 0 13 9 13 20 0 14 -11 22 -42 30 -24 6 -55 15 -70 20 -21 7 -28 5
-31 -8 -4 -16 -5 -16 -6 0 -1 11 -15 21 -43 28 -24 6 -81 22 -127 35 -46 14
-88 22 -92 19 -5 -3 -9 -1 -9 4 0 7 -88 35 -105 33 -2 0 -25 8 -51 19 -55 24
-54 24 -54 4z"/>
<path d="M700 1296 c0 -13 56 -37 116 -51 10 -2 46 -13 79 -24 37 -11 62 -15
66 -9 4 6 8 4 11 -4 5 -12 86 -39 128 -43 9 0 20 -4 26 -7 11 -7 231 -64 303
-78 25 -5 57 -13 71 -16 l25 -7 -29 32 c-34 35 -46 39 -47 14 0 -15 -2 -15 -9
2 -6 16 -26 25 -81 38 -90 21 -86 21 -92 0 -4 -14 -5 -13 -6 3 -1 18 -12 25
-72 39 -60 15 -73 16 -80 4 -7 -11 -9 -11 -9 2 0 12 -19 21 -66 33 -36 9 -69
14 -75 11 -5 -4 -9 -2 -9 3 0 5 -28 17 -62 25 -48 12 -64 13 -70 4 -5 -8 -8
-7 -8 3 0 10 -16 20 -45 28 -58 15 -65 15 -65 -2z"/>
<path d="M1110 1245 c0 -20 9 -25 65 -39 81 -20 85 -20 85 4 0 14 -11 22 -42
30 -24 6 -58 15 -75 20 -30 8 -33 6 -33 -15z"/>
<path d="M1270 1205 c0 -20 9 -25 68 -39 37 -9 75 -19 85 -22 9 -3 17 -1 17 5
0 17 -71 56 -122 68 -46 10 -48 9 -48 -12z"/>
<path d="M1120 1104 c0 -19 8 -25 43 -34 23 -6 56 -15 74 -20 26 -6 33 -5 36
8 4 15 5 15 6 0 1 -11 14 -21 39 -27 20 -5 57 -15 81 -21 33 -9 46 -9 51 0 5
8 9 8 13 -3 3 -8 32 -19 69 -26 34 -7 71 -14 81 -17 12 -4 17 0 17 15 0 27 -7
30 -108 51 -48 11 -114 26 -148 34 -34 8 -72 17 -85 20 -13 3 -57 14 -96 25
l-73 19 0 -24z"/>
<path d="M1642 991 c2 -22 8 -25 29 -23 32 4 63 -24 56 -49 -5 -20 3 -25 64
-34 l44 -6 2 48 3 49 -101 20 -100 20 3 -25z"/>
<path d="M2490 930 c0 -11 2 -20 4 -20 2 0 6 9 9 20 3 11 1 20 -4 20 -5 0 -9
-9 -9 -20z"/>
<path d="M2442 900 c0 -14 2 -19 5 -12 2 6 2 18 0 25 -3 6 -5 1 -5 -13z"/>
<path d="M2476 883 c7 -4 14 -19 17 -33 4 -22 5 -21 4 4 -1 17 -9 31 -17 33
-10 3 -11 2 -4 -4z"/>
<path d="M2411 804 c0 -11 3 -14 6 -6 3 7 2 16 -1 19 -3 4 -6 -2 -5 -13z"/>
<path d="M2431 734 c0 -11 3 -14 6 -6 3 7 2 16 -1 19 -3 4 -6 -2 -5 -13z"/>
</g>
</svg>
